<svg xmlns="http://www.w3.org/2000/svg" viewBox="0 0 444.46 74.41"><defs><style>.cls-1{fill:#fcfcfc;}</style></defs><g id="Layer_2" data-name="Layer 2"><g id="Layer_1-2" data-name="Layer 1"><polygon class="cls-1" points="63.44 49.59 49.27 0.16 38.06 0.16 23.9 49.59 14.37 0.16 0 0.16 17.07 74.25 30.21 74.25 43.97 22.48 57.12 74.25 70.26 74.25 87.33 0.16 72.96 0.16 63.44 49.59"/><path class="cls-1" d="M114.52,23.5a22.26,22.26,0,0,0-20,0,16.69,16.69,0,0,0-6.65,6.7,20.81,20.81,0,0,0-2.36,10.12V55.08a20.86,20.86,0,0,0,2.36,10.11,16.59,16.59,0,0,0,6.65,6.71,22.18,22.18,0,0,0,20,0,16.63,16.63,0,0,0,6.64-6.71,20.75,20.75,0,0,0,2.37-10.11V40.32a20.71,20.71,0,0,0-2.37-10.12A16.73,16.73,0,0,0,114.52,23.5Zm-1.17,31.83A9.15,9.15,0,0,1,110.93,62a9.49,9.49,0,0,1-12.86,0,9.15,9.15,0,0,1-2.42-6.63V40.07a9.13,9.13,0,0,1,2.42-6.64,9.55,9.55,0,0,1,12.86,0,9.13,9.13,0,0,1,2.42,6.64Z"/><path class="cls-1" d="M163.58,50.86a13.26,13.26,0,0,0,5-5.45,17.63,17.63,0,0,0,1.81-8.2A17.77,17.77,0,0,0,168.63,29a13.11,13.11,0,0,0-5-5.44A14.51,14.51,0,0,0,156,21.62H133.2V73.75H143v-21H149l11.74,21h11.9L160.16,52.28A12.93,12.93,0,0,0,163.58,50.86ZM143,31.08h12.21a4.56,4.56,0,0,1,3.71,1.68,6.82,6.82,0,0,1,1.38,4.45,6.94,6.94,0,0,1-1.42,4.44,4.49,4.49,0,0,1-3.67,1.68H143Z"/><polygon class="cls-1" points="220.19 21.66 207.83 21.66 190.84 47.46 190.84 21.66 181.03 21.66 181.03 73.75 190.84 73.75 190.84 62.47 198.31 52.09 210.73 73.75 222.37 73.75 204.72 43.17 220.19 21.66"/><polygon class="cls-1" points="301.1 54.52 274.63 0 257.47 0 257.47 74.41 270.89 74.41 270.89 20.73 297.26 74.41 314.52 74.41 314.52 0 301.1 0 301.1 54.52"/><polygon class="cls-1" points="327.95 21.66 324.4 21.66 324.4 73.75 327.95 73.75 334.22 73.75 359.3 73.75 359.3 64.29 334.22 64.29 334.22 52.61 355.36 52.61 355.36 43.15 334.22 43.15 334.22 31.11 359.3 31.11 359.3 21.66 334.22 21.66 327.95 21.66"/><path class="cls-1" d="M399.07,46.91a20.46,20.46,0,0,0-5.45-2.41c-2-.56-4-1-6-1.42-1.82-.36-3.51-.75-5.09-1.16A9.27,9.27,0,0,1,378.72,40a4.79,4.79,0,0,1-1.47-3.8v0A4.63,4.63,0,0,1,379.72,32a13.66,13.66,0,0,1,7-1.48A19.3,19.3,0,0,1,393,31.63a25.43,25.43,0,0,1,6.29,3.25l4.16-8.32a31.07,31.07,0,0,0-8.14-4,27.87,27.87,0,0,0-8.59-1.41q-9.18,0-14.19,4.17t-5,11.81v0a15.27,15.27,0,0,0,1.6,7.56,11.33,11.33,0,0,0,4.21,4.36A20.21,20.21,0,0,0,379,51.27q3.12.69,6.16,1.16a45.32,45.32,0,0,1,4.71,1,8.16,8.16,0,0,1,3.49,1.77,4.42,4.42,0,0,1,1.33,3.46v0a5.12,5.12,0,0,1-2.65,4.6,14.22,14.22,0,0,1-7.45,1.63,25.11,25.11,0,0,1-8.1-1.34,22.1,22.1,0,0,1-6.95-3.82L365,67.84a27,27,0,0,0,5.62,3.49,30.7,30.7,0,0,0,6.69,2.2,34.55,34.55,0,0,0,7.29.76q9.45,0,14.65-4.14t5.19-11.66v-.08A15.21,15.21,0,0,0,403,51.25,11.49,11.49,0,0,0,399.07,46.91Z"/><polygon class="cls-1" points="444.46 21.66 406.27 21.66 406.27 31.11 420.45 31.11 420.45 73.75 430.27 73.75 430.27 31.11 444.46 31.11 444.46 21.66"/></g></g></svg>